# xmcd
#
# Track frame offsets: 
#        150
#        8872
#        17960
#        27348
#        36193
#        47840
#        57955
#        67858
#        78112
#        86989
#        95531
#        104368
#        112904
#        124831
#        133314
#        143817
#        153150
#        166413
#        177309
#        189814
#        201367
#        212220
#        222899
#        235298
#        246780
#        258791
#        266890
#        276652
#        287159
#        298579
#        309787
#        320011
#        330531
#
# Disc length: 4555 seconds
#
# Revision: 2
# Processed by: cddbd v1.5.2PL0 Copyright (c) Steve Scherf et al.
# Submitted via: ExactAudioCopyFreeDBPlugin 1.0
#
DISCID=eb11c921
DTITLE=Faron Young - The Classic Years - 1952-1962 - CD 03
DYEAR=1999
DGENRE=Country
TTITLE0=That's The Way It's Gotta Be
TTITLE1=We're Talking It Over
TTITLE2=I Made A Fool Of Myself
TTITLE3=I'll Be Alright {In The Morning}
TTITLE4=Your Old Used To Be
TTITLE5=I'll Be Alright {In The Morning} (Single Version)
TTITLE6=Out Of My Heart
TTITLE7=Everytime I'm Kissing You
TTITLE8=Alone With You
TTITLE9=That's The Way I Feel
TTITLE10=I Hate Myself {For Falling In Love With You}
TTITLE11=Last Night At The Party
TTITLE12=A Long Time Ago
TTITLE13=Hey, Good Lookin'
TTITLE14=Tennessee Waltz
TTITLE15=Let Old Mother Nature Have Her Way
TTITLE16=Making Believe
TTITLE17=Almost
TTITLE18=Mom And Dad's Waltz
TTITLE19=Don't Let the Stars Get In Your Eyes
TTITLE20=Bouquet Of Roses
TTITLE21=Slowly
TTITLE22=Bimbo
TTITLE23=Chattanoogie Shoe Shine Boy
TTITLE24=I Don't Hurt Anymore
TTITLE25=I'll Go On Alone
TTITLE26=Honey Stop! {And Think Of Me}
TTITLE27=The Locket
TTITLE28=Snowball
TTITLE29=When It Rains, It Pours
TTITLE30=Rosalie {Is Gonna Get Married}
TTITLE31=I Can't Dance
TTITLE32=Once In A While
EXTD=
EXTT0=
EXTT1=
EXTT2=
EXTT3=
EXTT4=
EXTT5=
EXTT6=
EXTT7=
EXTT8=
EXTT9=
EXTT10=
EXTT11=
EXTT12=
EXTT13=
EXTT14=
EXTT15=
EXTT16=
EXTT17=
EXTT18=
EXTT19=
EXTT20=
EXTT21=
EXTT22=
EXTT23=
EXTT24=
EXTT25=
EXTT26=
EXTT27=
EXTT28=
EXTT29=
EXTT30=
EXTT31=
EXTT32=
PLAYORDER=
